<svg id="aboutus" xmlns="http://www.w3.org/2000/svg" width="35.065" height="35.065" viewBox="0 0 35.065 35.065">
  <path id="Trazado_131" data-name="Trazado 131" d="M211,435h6.164v5.273H211Zm0,0" transform="translate(-196.549 -405.208)" fill="#766e6e"/>
  <path id="Trazado_132" data-name="Trazado 132" d="M256,435h3.082v5.273H256Zm0,0" transform="translate(-238.467 -405.208)" fill="#5b5555"/>
  <path id="Trazado_133" data-name="Trazado 133" d="M181,375h10.273v4.109H181Zm0,0" transform="translate(-168.604 -349.317)" fill="#e3eeff"/>
  <path id="Trazado_134" data-name="Trazado 134" d="M256,375h5.137v4.109H256Zm0,0" transform="translate(-238.467 -349.317)" fill="#c4d9f2"/>
  <path id="Trazado_135" data-name="Trazado 135" d="M113.594,11.3a11.285,11.285,0,0,1-6.164,10.047v4.335H97.157V21.347A11.293,11.293,0,1,1,113.594,11.3Zm0,0" transform="translate(-84.76 0)" fill="#ffda2d"/>
  <path id="Trazado_136" data-name="Trazado 136" d="M267.3,11.3a11.285,11.285,0,0,1-6.164,10.047v4.335H256V0a11.294,11.294,0,0,1,11.3,11.3Zm0,0" transform="translate(-238.467)" fill="#fdbf00"/>
  <path id="Trazado_137" data-name="Trazado 137" d="M451,150h4.178v2.055H451Zm0,0" transform="translate(-420.112 -139.727)" fill="#fdbf00"/>
  <path id="Trazado_138" data-name="Trazado 138" d="M0,150H4.178v2.055H0Zm0,0" transform="translate(0 -139.727)" fill="#ffda2d"/>
  <path id="Trazado_139" data-name="Trazado 139" d="M420.941,253.342l-3.558-2.055,1.027-1.78,3.558,2.055Zm0,0" transform="translate(-388.798 -232.42)" fill="#fdbf00"/>
  <path id="Trazado_140" data-name="Trazado 140" d="M31.219,28.342,27.66,26.287l1.027-1.78,3.558,2.055Zm0,0" transform="translate(-25.766 -22.83)" fill="#ffda2d"/>
  <path id="Trazado_141" data-name="Trazado 141" d="M418.41,28.342l-1.027-1.78,3.558-2.055,1.027,1.78Zm0,0" transform="translate(-388.798 -22.83)" fill="#fdbf00"/>
  <path id="Trazado_142" data-name="Trazado 142" d="M28.688,253.342l-1.027-1.78,3.558-2.055,1.027,1.78Zm0,0" transform="translate(-25.766 -232.42)" fill="#ffda2d"/>
  <path id="Trazado_143" data-name="Trazado 143" d="M151,360h14.382v2.055H151Zm0,0" transform="translate(-140.658 -335.345)" fill="#c4d9f2"/>
  <path id="Trazado_144" data-name="Trazado 144" d="M256,360h7.191v2.055H256Zm0,0" transform="translate(-238.467 -335.345)" fill="#a9c3ea"/>
  <path id="Trazado_145" data-name="Trazado 145" d="M151,420h14.382v2.055H151Zm0,0" transform="translate(-140.658 -391.236)" fill="#c4d9f2"/>
  <path id="Trazado_146" data-name="Trazado 146" d="M256,420h7.191v2.055H256Zm0,0" transform="translate(-238.467 -391.236)" fill="#a9c3ea"/>
  <path id="Trazado_147" data-name="Trazado 147" d="M186.712,57.37l-.575-.37-.575.37c-.185.144-4.561,3.123-4.561,7.027s4.376,6.883,4.561,7.027l.575.37.575-.37c.185-.144,4.561-3.123,4.561-7.027S186.9,57.514,186.712,57.37Zm0,0" transform="translate(-168.603 -53.096)" fill="#daf569"/>
  <path id="Trazado_148" data-name="Trazado 148" d="M261.136,64.4c0,3.9-4.376,6.883-4.561,7.027l-.575.37V57l.575.37c.185.144,4.561,3.123,4.561,7.027Zm0,0" transform="translate(-238.467 -53.097)" fill="#a6d224"/>
  <path id="Trazado_149" data-name="Trazado 149" d="M241,135h2.055v11.3H241Zm0,0" transform="translate(-224.495 -125.754)" fill="#51590e"/>
  <path id="Trazado_150" data-name="Trazado 150" d="M256,135h1.027v11.3H256Zm0,0" transform="translate(-238.467 -125.754)" fill="#79ac14"/>
</svg>
