<?xml version="1.0" encoding="utf-8"?>
<!-- Generator: Adobe Illustrator 23.0.1, SVG Export Plug-In . SVG Version: 6.00 Build 0)  -->
<svg version="1.1" id="Capa_1" xmlns="http://www.w3.org/2000/svg" xmlns:xlink="http://www.w3.org/1999/xlink" x="0px" y="0px"
	 viewBox="0 0 42.4 42.4" style="enable-background:new 0 0 42.4 42.4;" xml:space="preserve">
<style type="text/css">
	.st0{fill:#FFFFFF;}
	.st1{fill:#FBBB00;}
	.st2{fill:#518EF8;}
	.st3{fill:#28B446;}
	.st4{fill:#F14336;}
</style>
<g id="gmail" transform="translate(-846.403 -740.187)">
	<path id="Trazado_152" class="st0" d="M867.6,740.2c11.7,0,21.2,9.5,21.2,21.2s-9.5,21.2-21.2,21.2s-21.2-9.5-21.2-21.2
		S855.9,740.2,867.6,740.2L867.6,740.2z"/>
	<g id="search" transform="translate(855.938 747.922)">
		<path id="Trazado_61" class="st1" d="M5.6,15.2l-0.9,3.3l-3.2,0.1c-2-3.7-2-8.1-0.1-11.8l0,0l2.9,0.5l1.3,2.8
			C4.9,11.8,5,13.6,5.6,15.2L5.6,15.2z"/>
		<path id="Trazado_62" class="st2" d="M25,10.2c0.9,4.6-0.9,9.3-4.5,12.2l0,0l-3.6-0.2L16.4,19c1.5-0.9,2.6-2.2,3.2-3.8h-6.7v-5
			L25,10.2L25,10.2z"/>
		<path id="Trazado_63" class="st3" d="M20.5,22.4L20.5,22.4c-5.4,4.4-13.4,3.5-17.7-1.9c-0.5-0.6-0.9-1.2-1.3-1.9l4.1-3.3
			c1.5,3.9,5.8,5.8,9.6,4.4c0.4-0.2,0.8-0.3,1.2-0.6L20.5,22.4z"/>
		<path id="Trazado_64" class="st4" d="M20.6,2.9l-4.1,3.3C13,4.1,8.4,5.1,6.2,8.6c-0.3,0.5-0.5,1-0.7,1.5L1.4,6.8l0,0
			c3.2-6.2,10.8-8.6,17-5.4C19.2,1.8,19.9,2.3,20.6,2.9z"/>
	</g>
</g>
</svg>
