<svg xmlns="http://www.w3.org/2000/svg" width="42.386" height="42.386" viewBox="0 0 42.386 42.386">
  <g id="gmail" transform="translate(-846.403 -740.187)">
    <path id="Trazado_152" data-name="Trazado 152" d="M21.193,0A21.193,21.193,0,1,1,0,21.193,21.193,21.193,0,0,1,21.193,0Z" transform="translate(846.403 740.187)" fill="#fff"/>
    <g id="search" transform="translate(855.938 747.922)">
      <path id="Trazado_61" data-name="Trazado 61" d="M5.583,146.689l-.877,3.274L1.5,150.03a12.618,12.618,0,0,1-.093-11.762h0l2.853.523,1.25,2.836a7.517,7.517,0,0,0,.071,5.061Z" transform="translate(0 -131.465)" fill="#fbbb00"/>
      <path id="Trazado_62" data-name="Trazado 62" d="M273.727,208.176a12.591,12.591,0,0,1-4.49,12.176h0l-3.594-.183-.509-3.175a7.507,7.507,0,0,0,3.23-3.833h-6.735v-4.983h12.1Z" transform="translate(-248.755 -197.933)" fill="#518ef8"/>
      <path id="Trazado_63" data-name="Trazado 63" d="M49.489,316.6h0a12.6,12.6,0,0,1-18.98-3.854l4.082-3.341a7.491,7.491,0,0,0,10.8,3.836Z" transform="translate(-29.008 -294.185)" fill="#28b446"/>
      <path id="Trazado_64" data-name="Trazado 64" d="M47.851,2.9,43.771,6.24a7.49,7.49,0,0,0-11.043,3.922L28.625,6.8h0A12.6,12.6,0,0,1,47.851,2.9Z" transform="translate(-27.216)" fill="#f14336"/>
    </g>
  </g>
</svg>
