<svg xmlns="http://www.w3.org/2000/svg" width="42.386" height="42.386" viewBox="0 0 42.386 42.386">
  <g id="gmail2" transform="translate(-20 -3.442)">
    <circle id="Elipse_11" data-name="Elipse 11" cx="21.193" cy="21.193" r="21.193" transform="translate(20 3.442)" fill="#f5f5f5"/>
    <g id="search" transform="translate(29.419 12.861)">
      <path id="Trazado_61" data-name="Trazado 61" d="M5.384,146.389l-.846,3.157-3.091.065a12.168,12.168,0,0,1-.089-11.343h0l2.752.5,1.205,2.735a7.249,7.249,0,0,0,.068,4.881Z" transform="translate(0 -131.707)" fill="#fbbb00"/>
      <path id="Trazado_62" data-name="Trazado 62" d="M273.3,208.176a12.142,12.142,0,0,1-4.33,11.742h0l-3.466-.177-.491-3.062a7.24,7.24,0,0,0,3.115-3.7h-6.5v-4.805H273.3Z" transform="translate(-249.214 -198.298)" fill="#518ef8"/>
      <path id="Trazado_63" data-name="Trazado 63" d="M48.813,316.347h0a12.151,12.151,0,0,1-18.3-3.716l3.936-3.222a7.224,7.224,0,0,0,10.411,3.7Z" transform="translate(-29.061 -294.728)" fill="#28b446"/>
      <path id="Trazado_64" data-name="Trazado 64" d="M47.167,2.8,43.231,6.018A7.223,7.223,0,0,0,32.582,9.8l-3.957-3.24h0A12.15,12.15,0,0,1,47.167,2.8Z" transform="translate(-27.266)" fill="#f14336"/>
    </g>
  </g>
</svg>
