<svg xmlns="http://www.w3.org/2000/svg" width="29.065" height="27.575" viewBox="0 0 29.065 27.575">
  <g id="home" transform="translate(-4 -6)">
    <path id="Trazado_110" data-name="Trazado 110" d="M27.848,16.434,12.943,6,4,18.669,19.651,29.1h4.472l5.269-8.649Zm0,0" fill="#e0ac6e"/>
    <path id="Trazado_111" data-name="Trazado 111" d="M34.323,33.758c.937.894,2.044,1.214,2.457.71s-.006-1.642-.943-2.539-2.041-1.214-2.46-.71S33.385,32.862,34.323,33.758Zm-4.565,2.017c1.205.573,2.4.559,2.661-.032s-.5-1.537-1.706-2.108-2.4-.559-2.661.032S28.553,35.2,29.758,35.776Zm-.652-5c.937.894,2.044,1.214,2.457.71s-.006-1.642-.943-2.539-2.041-1.214-2.46-.71S28.169,29.881,29.106,30.777Zm7.837,6.166c-1.234,0-2.236.5-2.236,1.118s1,1.118,2.236,1.118,2.236-.5,2.236-1.118S38.177,36.943,36.943,36.943Zm0,0" transform="translate(-6.113 -5.604)" fill="#5d4037"/>
    <path id="Trazado_112" data-name="Trazado 112" d="M12.943,6l1.651,4.212L8.472,18.669H4L19.651,29.1l8.2-12.669Zm0,0" fill="#ffcc80"/>
    <path id="Trazado_113" data-name="Trazado 113" d="M24.943,21.472A4.472,4.472,0,1,1,20.472,17a4.469,4.469,0,0,1,4.472,4.472" transform="translate(-3.057 -2.802)" fill="#558b2f"/>
    <path id="Trazado_114" data-name="Trazado 114" d="M20.535,19.56a1.092,1.092,0,1,1,2.183,0A7.448,7.448,0,0,1,21.627,21.8a7.448,7.448,0,0,1-1.092-2.239m2.183,4.474a1.092,1.092,0,1,1-2.183,0A7.425,7.425,0,0,1,21.627,21.8a7.425,7.425,0,0,1,1.092,2.236" transform="translate(-4.212 -3.17)" fill="#fff"/>
    <path id="Trazado_115" data-name="Trazado 115" d="M18.544,22.03a1.133,1.133,0,0,1-.4-1.525,1.073,1.073,0,0,1,1.491-.408,7.432,7.432,0,0,1,1.345,2.084,7.065,7.065,0,0,1-2.437-.151m4.873.3a1.137,1.137,0,0,1,.4,1.528,1.073,1.073,0,0,1-1.491.408,7.366,7.366,0,0,1-1.345-2.084,7.05,7.05,0,0,1,2.437.148" transform="translate(-3.566 -3.552)" fill="#fff"/>
    <path id="Trazado_116" data-name="Trazado 116" d="M23.418,22.03a1.133,1.133,0,0,0,.4-1.525,1.073,1.073,0,0,0-1.491-.408,7.366,7.366,0,0,0-1.345,2.084,7.065,7.065,0,0,0,2.437-.151m-4.873.3a1.137,1.137,0,0,0-.4,1.528,1.073,1.073,0,0,0,1.491.408,7.432,7.432,0,0,0,1.345-2.084,7.05,7.05,0,0,0-2.437.148" transform="translate(-3.566 -3.552)" fill="#fff"/>
    <path id="Trazado_117" data-name="Trazado 117" d="M22.736,22.618A1.118,1.118,0,1,1,21.618,21.5a1.118,1.118,0,0,1,1.118,1.118" transform="translate(-4.203 -3.948)" fill="#ffc107"/>
  </g>
</svg>
