<svg xmlns="http://www.w3.org/2000/svg" width="31.928" height="31.928" viewBox="0 0 31.928 31.928">
  <g id="logout" transform="translate(0 -0.004)">
    <path id="Trazado_152" data-name="Trazado 152" d="M43.627,17.3a3.991,3.991,0,1,1,0-7.982h2.66V3.995A4,4,0,0,0,42.3,0H28a1.329,1.329,0,0,0-1.243,1.8L36.4,27.084a1.328,1.328,0,0,0,1.243.857H42.3a4,4,0,0,0,3.991-3.991V17.3Zm0,0" transform="translate(-25.002)" fill="#f8690a"/>
    <path id="Trazado_153" data-name="Trazado 153" d="M284.8,119.868a1.333,1.333,0,0,1-.821-1.229v-3.991h-5.321a1.33,1.33,0,1,1,0-2.66h5.321V108a1.33,1.33,0,0,1,2.271-.94l5.321,5.321a1.329,1.329,0,0,1,0,1.881l-5.321,5.321a1.33,1.33,0,0,1-1.45.289Zm0,0" transform="translate(-260.038 -100.011)" fill="#fff"/>
    <path id="Trazado_154" data-name="Trazado 154" d="M11.5,2.862,3.508.2A2.679,2.679,0,0,0,0,2.726V26.672A2.674,2.674,0,0,0,1.8,29.2l7.992,2.665a2.815,2.815,0,0,0,.849.132,2.663,2.663,0,0,0,2.66-2.661V5.387a2.675,2.675,0,0,0-1.8-2.525Zm0,0" transform="translate(0 -0.062)" fill="#f8920a"/>
  </g>
</svg>
