<svg id="store" xmlns="http://www.w3.org/2000/svg" width="26.565" height="26.565" viewBox="0 0 26.565 26.565">
  <rect id="Rect치ngulo_163" data-name="Rect치ngulo 163" width="23.359" height="13.741" transform="translate(1.374 5.038)" fill="#f9eab0"/>
  <path id="Trazado_73" data-name="Trazado 73" d="M25.649,41H.916L0,46.038l.916,2.748H25.649l.916-2.748Z" transform="translate(0 -22.221)" fill="#7f5b53"/>
  <path id="Trazado_74" data-name="Trazado 74" d="M7.8,0H6.429A6.622,6.622,0,0,0,.064,4.872c-.1.352.038.166.125.166H13.3V0Z" transform="translate(-0.016)" fill="#f8b10a"/>
  <path id="Trazado_75" data-name="Trazado 75" d="M36.328,5.038H42.12c.082,0,.184.079.118-.156l0-.011A6.605,6.605,0,0,0,36.328.02V0H29V5.038h7.328Z" transform="translate(-15.717)" fill="#f3d55b"/>
  <path id="Trazado_76" data-name="Trazado 76" d="M12.664,31.483,9,27.82l.516-.516a4.453,4.453,0,0,1,6.3,0l.516.516-3.664,3.664Z" transform="translate(-4.878 -14.091)" fill="#bdc3c7"/>
  <rect id="Rect치ngulo_164" data-name="Rect치ngulo 164" width="1.832" height="1.374" transform="translate(6.87 17.393)" fill="#a5a5a4"/>
  <circle id="Elipse_8" data-name="Elipse 8" cx="1.374" cy="1.374" r="1.374" transform="translate(16.489 15.573)" fill="#14a085"/>
  <circle id="Elipse_9" data-name="Elipse 9" cx="1.374" cy="1.374" r="1.374" transform="translate(19.237 15.573)" fill="#4c8056"/>
  <circle id="Elipse_10" data-name="Elipse 10" cx="1.374" cy="1.374" r="1.374" transform="translate(17.863 13.283)" fill="#71c285"/>
  <path id="Trazado_77" data-name="Trazado 77" d="M21.412,5.038H15A6.136,6.136,0,0,1,21.037,0h.376Z" transform="translate(-8.13)" fill="#f3d55b"/>
  <path id="Trazado_78" data-name="Trazado 78" d="M35.412,5.038H29V0h.376a6.136,6.136,0,0,1,6.037,5.038Z" transform="translate(-15.717)" fill="#f8b10a"/>
  <path id="Trazado_79" data-name="Trazado 79" d="M3.664,15.122H3.206A3.206,3.206,0,0,1,0,11.916v-.843A.073.073,0,0,1,.073,11h6.8v.916A3.206,3.206,0,0,1,3.664,15.122Z" transform="translate(0 -5.962)" fill="#f8920a"/>
  <path id="Trazado_80" data-name="Trazado 80" d="M18.206,15.122h0A3.206,3.206,0,0,1,15,11.916V11h6.412v.916A3.206,3.206,0,0,1,18.206,15.122Z" transform="translate(-8.13 -5.962)" fill="#ddc357"/>
  <path id="Trazado_81" data-name="Trazado 81" d="M32.206,15.122h0A3.206,3.206,0,0,1,29,11.916V11h6.412v.916A3.206,3.206,0,0,1,32.206,15.122Z" transform="translate(-15.717 -5.962)" fill="#f8920a"/>
  <path id="Trazado_82" data-name="Trazado 82" d="M46.664,15.122h-.458A3.206,3.206,0,0,1,43,11.916V11h6.8a.073.073,0,0,1,.073.073v.843A3.206,3.206,0,0,1,46.664,15.122Z" transform="translate(-23.305 -5.962)" fill="#ddc357"/>
  <path id="Trazado_83" data-name="Trazado 83" d="M2,17.894V28.477H3.832V18.822A3.192,3.192,0,0,1,2,17.894Z" transform="translate(-1.084 -9.698)" fill="#7f6e5d"/>
  <path id="Trazado_84" data-name="Trazado 84" d="M52,18.822v9.655h1.832V17.894A3.192,3.192,0,0,1,52,18.822Z" transform="translate(-28.183 -9.698)" fill="#7f6e5d"/>
  <g id="Grupo_30" data-name="Grupo 30" transform="translate(0 23.817)">
    <path id="Trazado_85" data-name="Trazado 85" d="M0,52l.916,2.748h8.7L8.7,52Z" transform="translate(0 -52)" fill="#805333"/>
    <path id="Trazado_86" data-name="Trazado 86" d="M37.916,52,37,54.748h8.7L46.619,52Z" transform="translate(-20.053 -52)" fill="#805333"/>
  </g>
  <path id="Trazado_87" data-name="Trazado 87" d="M27.244,54.748H19.916L19,52h9.16Z" transform="translate(-10.298 -28.183)" fill="#563621"/>
  <path id="Trazado_88" data-name="Trazado 88" d="M16.458,33.095h0l.458-.458V29.431a.458.458,0,0,0-.916,0v3.206Z" transform="translate(-8.672 -15.703)" fill="#ecf0f1"/>
  <path id="Trazado_89" data-name="Trazado 89" d="M15.87,37.89H9.458a.458.458,0,1,1,0-.916H15.87a.458.458,0,0,1,0,.916Z" transform="translate(-4.878 -20.039)" fill="#d1d4d1"/>
  <path id="Trazado_90" data-name="Trazado 90" d="M9.619,41H.916L0,46.038H8.7Z" transform="translate(0 -22.221)" fill="#f8690a"/>
  <path id="Trazado_91" data-name="Trazado 91" d="M46.619,46.038,45.7,41H37l.916,5.038Z" transform="translate(-20.053 -22.221)" fill="#f8b10a"/>
  <path id="Trazado_92" data-name="Trazado 92" d="M27.244,41H19.916L19,46.038h9.16Z" transform="translate(-10.298 -22.221)" fill="#f8920a"/>
</svg>
