<svg id="sun" xmlns="http://www.w3.org/2000/svg" width="47.147" height="47.147" viewBox="0 0 47.147 47.147">
  <path id="Trazado_68" data-name="Trazado 68" d="M40.811,9.154l1.731.438-.092,1.783A3.892,3.892,0,0,0,44.312,14.9l1.525.929L45.224,17.5a3.891,3.891,0,0,0,.741,3.915l1.183,1.337-1.08,1.422a3.891,3.891,0,0,0-.446,3.96l.736,1.626L44.907,30.8a3.891,3.891,0,0,0-1.593,3.652l.224,1.771-1.693.566a3.891,3.891,0,0,0-2.6,3.02l-.308,1.758-1.785.042a3.891,3.891,0,0,0-3.374,2.12l-.812,1.59-1.718-.486A3.891,3.891,0,0,0,27.4,45.868l-1.245,1.28-1.5-.971a3.892,3.892,0,0,0-3.982-.149l-1.567.856-1.146-1.369A3.892,3.892,0,0,0,14.2,44.2l-1.749.356-.691-1.646a3.891,3.891,0,0,0-3.206-2.366L6.78,40.367,6.6,38.591a3.892,3.892,0,0,0-2.366-3.206l-1.646-.691.356-1.749a3.891,3.891,0,0,0-1.316-3.761L.263,28.038l.856-1.567A3.891,3.891,0,0,0,.97,22.489L0,20.991l1.28-1.245A3.891,3.891,0,0,0,2.311,15.9L1.825,14.18l1.59-.812a3.891,3.891,0,0,0,2.12-3.374l.042-1.785L7.335,7.9a3.891,3.891,0,0,0,3.02-2.6l.566-1.693,1.771.224A3.891,3.891,0,0,0,16.345,2.24L17.385.789l1.626.736a3.891,3.891,0,0,0,3.96-.446L24.392,0l1.337,1.183a3.892,3.892,0,0,0,3.915.741l1.677-.613.929,1.525A3.892,3.892,0,0,0,35.772,4.7l1.783-.092.438,1.731A3.892,3.892,0,0,0,40.811,9.154Z" fill="#fd961e"/>
  <circle id="Elipse_7" data-name="Elipse 7" cx="16.986" cy="16.986" r="16.986" transform="translate(6.587 6.587)" fill="#fadc60"/>
  <path id="Trazado_69" data-name="Trazado 69" d="M75.333,88.524a16.988,16.988,0,0,1,15.089-16.88,17.167,17.167,0,0,0-1.9-.106,16.986,16.986,0,1,0,0,33.972,17.166,17.166,0,0,0,1.9-.106A16.988,16.988,0,0,1,75.333,88.524Z" transform="translate(-64.95 -64.95)" fill="#f2c42c"/>
  <g id="Grupo_28" data-name="Grupo 28" transform="translate(13.094 21.506)">
    <path id="Trazado_70" data-name="Trazado 70" d="M142.9,236.741a.711.711,0,0,1-.711-.711v-1.768a.711.711,0,0,1,1.423,0v1.768A.711.711,0,0,1,142.9,236.741Z" transform="translate(-142.192 -233.55)" fill="#3a484a"/>
    <path id="Trazado_71" data-name="Trazado 71" d="M355.068,236.741a.711.711,0,0,1-.711-.711v-1.768a.711.711,0,1,1,1.423,0v1.768A.711.711,0,0,1,355.068,236.741Z" transform="translate(-334.82 -233.55)" fill="#3a484a"/>
    <path id="Trazado_72" data-name="Trazado 72" d="M225.213,253.9a3.9,3.9,0,0,1-2.947-1.31.712.712,0,0,1,1.071-.936,2.548,2.548,0,0,0,3.751,0,.711.711,0,1,1,1.071.936A3.9,3.9,0,0,1,225.213,253.9Z" transform="translate(-214.733 -249.767)" fill="#3a484a"/>
  </g>
</svg>
